<?xml version="1.0" encoding="utf-8"?>
<!-- Generator: Adobe Illustrator 22.1.0, SVG Export Plug-In . SVG Version: 6.00 Build 0)  -->
<svg version="1.1" id="Layer_1" xmlns="http://www.w3.org/2000/svg" xmlns:xlink="http://www.w3.org/1999/xlink" x="0px" y="0px"
	 viewBox="0 0 104.7 98.7" style="enable-background:new 0 0 104.7 98.7;" xml:space="preserve">
<style type="text/css">
	.st0{fill:#CFD9FD;stroke:#CFD9FD;stroke-width:4;stroke-linecap:round;stroke-linejoin:round;stroke-miterlimit:10;}
	.st1{fill:none;stroke:#27D7A3;stroke-width:4.5;stroke-linecap:round;stroke-linejoin:round;stroke-miterlimit:10;}
	.st2{fill:#27D7A3;}
	.st3{fill:none;stroke:#5C59ED;stroke-width:4.5;stroke-linecap:round;stroke-linejoin:round;stroke-miterlimit:10;}
	.st4{fill:#5C59ED;stroke:#5C59ED;stroke-width:1.6534;stroke-miterlimit:10;}
</style>
<path class="st0" d="M68.3,64.5L54.7,78.3l-16.6,2.2l-18.5,3.9l-0.5,6.9l16-4.6c2.4,0.6,4.9,1,7.6,1c15,0,27.2-11.1,27.2-24.8
	c0-1.2-0.1-2.4-0.3-3.5L68.3,64.5z"/>
<path class="st1" d="M75.8,65.1l8.4,2.6L83,52c3-4.3,4.7-9.5,4.7-15.2C87.8,22,75.6,9.9,60.6,9.9C51.8,9.9,44,14,39,20.4"/>
<g>
	<circle class="st2" cx="61.4" cy="35.2" r="3.1"/>
	<path class="st2" d="M61.4,39.6c-2.4,0-4.4-2-4.4-4.4s2-4.4,4.4-4.4s4.4,2,4.4,4.4S63.8,39.6,61.4,39.6z M61.4,33.5
		c-0.9,0-1.7,0.8-1.7,1.7s0.8,1.7,1.7,1.7s1.7-0.8,1.7-1.7S62.3,33.5,61.4,33.5z"/>
</g>
<g>
	<circle class="st2" cx="72.6" cy="35.2" r="3.1"/>
	<path class="st2" d="M72.6,39.1c-2.1,0-3.9-1.7-3.9-3.9c0-2.1,1.7-3.9,3.9-3.9s3.9,1.7,3.9,3.9C76.5,37.4,74.7,39.1,72.6,39.1z
		 M72.6,33c-1.2,0-2.2,1-2.2,2.2s1,2.2,2.2,2.2s2.2-1,2.2-2.2C74.8,34,73.8,33,72.6,33z"/>
</g>
<path class="st3" d="M41.7,30.2c-15,0-27.2,11.1-27.2,24.8c0,5.2,1.8,10,4.7,14l-1.1,14.4l16-4.6c2.4,0.6,4.9,1,7.6,1
	c15,0,27.2-11.1,27.2-24.8S56.7,30.2,41.7,30.2z"/>
<g>
	<circle class="st4" cx="30.2" cy="55.6" r="3.1"/>
	<circle class="st4" cx="41.5" cy="55.6" r="3.1"/>
	<circle class="st4" cx="52.7" cy="55.6" r="3.1"/>
</g>
</svg>
