<?xml version="1.0" encoding="utf-8"?>
<!-- Generator: Adobe Illustrator 22.1.0, SVG Export Plug-In . SVG Version: 6.00 Build 0)  -->
<svg version="1.1" id="Layer_1" xmlns="http://www.w3.org/2000/svg" xmlns:xlink="http://www.w3.org/1999/xlink" x="0px" y="0px"
	 viewBox="0 0 104.7 98.7" style="enable-background:new 0 0 104.7 98.7;" xml:space="preserve">
<style type="text/css">
	.st0{fill:#CFD9FD;stroke:#CFD9FD;stroke-width:4.5;stroke-linecap:round;stroke-linejoin:round;stroke-miterlimit:10;}
	.st1{fill:none;stroke:#5C59ED;stroke-width:4.5;stroke-linecap:round;stroke-linejoin:round;stroke-miterlimit:10;}
	.st2{fill:#FFFFFF;stroke:#27D7A3;stroke-width:4.5;stroke-linecap:round;stroke-linejoin:round;stroke-miterlimit:10;}
</style>
<path class="st0" d="M84.3,32.2v12.7l0,22.9l1.4,9.1L83,81.7l-4.8,5.4l-13.8,1.8H32.4L17.9,88l-5.2-4.8C14.4,88.3,20.3,92,26,92
	h48.3c7.1,0,13-5.8,13-13V40.5C87.3,37.3,86.1,34.4,84.3,32.2z"/>
<path class="st1" d="M21.7,23.6c1-6.2,6.4-10.9,12.8-10.9h48.3c7.1,0,13,5.8,13,13v38.6c0,6.6-5.1,12.2-11.5,12.9"/>
<path class="st1" d="M71.3,88H23c-7.1,0-13-5.8-13-13V36.5c0-7.1,5.8-13,13-13h48.3c7.1,0,13,5.8,13,13V75
	C84.3,82.2,78.4,88,71.3,88z"/>
<g>
	<line class="st2" x1="27.1" y1="63" x2="20.8" y2="56.6"/>
	<line class="st2" x1="27.1" y1="50.3" x2="20.8" y2="56.6"/>
</g>
<g>
	<line class="st2" x1="67.2" y1="63" x2="73.6" y2="56.6"/>
	<line class="st2" x1="67.2" y1="50.3" x2="73.6" y2="56.6"/>
</g>
</svg>
