<?xml version="1.0" encoding="utf-8"?>
<!-- Generator: Adobe Illustrator 22.1.0, SVG Export Plug-In . SVG Version: 6.00 Build 0)  -->
<svg version="1.1" id="Layer_1" xmlns="http://www.w3.org/2000/svg" xmlns:xlink="http://www.w3.org/1999/xlink" x="0px" y="0px"
	 viewBox="0 0 104.7 98.7" style="enable-background:new 0 0 104.7 98.7;" xml:space="preserve">
<style type="text/css">
	.st0{opacity:0.33;fill:none;stroke:#5C59ED;stroke-width:4.5;stroke-linecap:round;stroke-linejoin:round;stroke-miterlimit:10;}
	.st1{fill:none;stroke:#27D7A3;stroke-width:4.5;stroke-linecap:round;stroke-linejoin:round;stroke-miterlimit:10;}
	.st2{fill:none;stroke:#5C59ED;stroke-width:4.5;stroke-linecap:round;stroke-linejoin:round;stroke-miterlimit:10;}
</style>
<path class="st0" d="M74.4,19.1c0-7.2-5.8-13-13-13c-3.7,0-7,1.5-9.4,4c-2.4-2.5-5.7-4-9.4-4c-7.2,0-13,5.8-13,13"/>
<path class="st1" d="M82,35.3c0-9.6-7.8-17.4-17.4-17.4c-4.9,0-9.4,2.1-12.5,5.4c-3.2-3.3-7.6-5.4-12.5-5.4
	c-9.6,0-17.4,7.8-17.4,17.4"/>
<path class="st2" d="M22.2,36.9c-2.6,3.3-4.1,7.5-4.1,12c0,3.7,1.1,7.2,2.9,10.1h0l0.1,0.1c0.9,1.5,2,2.8,3.3,4l27.5,30.3l27.5-30.3
	c1.3-1.2,2.4-2.5,3.3-4l0.1-0.1h0c1.8-3,2.9-6.4,2.9-10.1c0-10.8-8.8-19.6-19.6-19.6c-5.6,0-10.6,2.3-14.1,6.1
	c-3.6-3.7-8.6-6.1-14.1-6.1C31.4,29.4,25.8,32.3,22.2,36.9"/>
<path class="st2" d="M27.5,51.6c-0.1-2.5,0.5-5.4,2.7-8.1c0,0,4.1-6,13-2"/>
</svg>
