<?xml version="1.0" encoding="utf-8"?>
<!-- Generator: Adobe Illustrator 22.1.0, SVG Export Plug-In . SVG Version: 6.00 Build 0)  -->
<svg version="1.1" id="Layer_1" xmlns="http://www.w3.org/2000/svg" xmlns:xlink="http://www.w3.org/1999/xlink" x="0px" y="0px"
	 viewBox="0 0 104.7 98.7" style="enable-background:new 0 0 104.7 98.7;" xml:space="preserve">
<style type="text/css">
	.st0{fill:#CFD9FD;stroke:#CFD9FD;stroke-width:4.5;stroke-linecap:round;stroke-linejoin:round;stroke-miterlimit:10;}
	.st1{fill:none;stroke:#5C59ED;stroke-width:4.5;stroke-linecap:round;stroke-linejoin:round;stroke-miterlimit:10;}
	.st2{fill:#27D7A3;stroke:#27D7A3;stroke-width:1.5;stroke-miterlimit:10;}
</style>
<path class="st0" d="M79.1,19.7l2.1,2.1L81,76.5l-0.9,7.8L73,88.5l-52.3,0.2c2,4,6.1,5.8,10.8,5.8H75c6.6,0,12-5.4,12-12V27.4
	L79.1,19.7z"/>
<path class="st1" d="M69,88.5H25.5c-6.6,0-12-5.4-12-12v-59c0-6.6,5.4-12,12-12h39.1L81,21.4v55.1C81,83.1,75.6,88.5,69,88.5z"/>
<polyline class="st1" points="81,22.8 64.3,22.8 64.6,5.5 "/>
<g>
	<path class="st2" d="M42.1,72.4c-0.1,0-0.2,0-0.3,0c-1.9-0.5-3.8-1.3-5.6-2.3c-0.5-0.3-0.7-0.9-0.4-1.5c0.3-0.6,0.5-1.3,0.5-2.1
		c0-2.4-1.9-4.3-4.3-4.3c-0.7,0-1.4,0.2-2.1,0.5c-0.5,0.3-1.2,0.1-1.5-0.4c-1-1.7-1.8-3.6-2.3-5.6c-0.1-0.6,0.2-1.1,0.7-1.3
		c1.8-0.6,3-2.3,3-4.1c0-1.9-1.2-3.5-3-4.1c-0.5-0.2-0.8-0.7-0.7-1.3c0.5-1.9,1.3-3.8,2.3-5.6c0.3-0.5,0.9-0.7,1.5-0.4
		c0.6,0.3,1.3,0.5,2.1,0.5c2.4,0,4.3-1.9,4.3-4.3c0-0.7-0.2-1.4-0.5-2.1c-0.3-0.5-0.1-1.2,0.4-1.5c1.7-1,3.6-1.8,5.6-2.3
		c0.6-0.1,1.1,0.2,1.3,0.7c0.6,1.8,2.2,3,4.1,3c1.9,0,3.5-1.2,4.1-3c0.2-0.5,0.7-0.8,1.3-0.7c1.9,0.5,3.8,1.3,5.6,2.3
		c0.5,0.3,0.7,0.9,0.4,1.5c-0.3,0.6-0.5,1.3-0.5,2.1c0,2.4,1.9,4.3,4.3,4.3c0.7,0,1.4-0.2,2.1-0.5c0.5-0.3,1.2-0.1,1.5,0.4
		c1,1.7,1.8,3.6,2.3,5.6c0.1,0.6-0.2,1.1-0.7,1.3c-1.8,0.6-3,2.2-3,4.1c0,1.9,1.2,3.5,3,4.1c0.5,0.2,0.8,0.7,0.7,1.3
		c-0.5,1.9-1.3,3.8-2.3,5.6c-0.3,0.5-0.9,0.7-1.5,0.4c-0.6-0.3-1.3-0.5-2.1-0.5c-2.4,0-4.3,1.9-4.3,4.3c0,0.7,0.2,1.4,0.5,2.1
		c0.3,0.5,0.1,1.2-0.4,1.5c-1.7,1-3.6,1.8-5.6,2.3c-0.6,0.1-1.1-0.2-1.3-0.7c-0.6-1.8-2.3-3-4.1-3c-1.9,0-3.5,1.2-4.1,3
		C43,72.1,42.6,72.4,42.1,72.4L42.1,72.4z M47.3,66.5c2.4,0,4.6,1.4,5.8,3.5c1.1-0.3,2.2-0.8,3.3-1.3c-0.2-0.7-0.4-1.4-0.4-2.1
		c0-3.6,2.9-6.5,6.5-6.5c0.7,0,1.4,0.1,2.1,0.4c0.6-1.1,1-2.1,1.4-3.3c-2.1-1.1-3.5-3.3-3.5-5.8c0-2.4,1.4-4.6,3.5-5.8
		c-0.4-1.1-0.8-2.2-1.4-3.3c-0.7,0.2-1.4,0.4-2.1,0.4c-3.6,0-6.5-2.9-6.5-6.5c0-0.7,0.1-1.4,0.4-2.1c-1-0.5-2.1-1-3.3-1.3
		c-1.1,2.1-3.3,3.5-5.8,3.5s-4.6-1.4-5.8-3.5c-1.1,0.3-2.2,0.8-3.3,1.3c0.2,0.7,0.4,1.4,0.4,2.1c0,3.6-2.9,6.5-6.5,6.5
		c-0.7,0-1.4-0.1-2.1-0.4c-0.5,1-1,2.1-1.3,3.3c2.1,1.1,3.5,3.3,3.5,5.8c0,2.4-1.4,4.6-3.5,5.8c0.3,1.1,0.8,2.2,1.3,3.3
		c0.7-0.2,1.4-0.4,2.1-0.4c3.6,0,6.5,2.9,6.5,6.5c0,0.7-0.1,1.4-0.4,2.1c1,0.5,2.1,1,3.3,1.3C42.6,67.9,44.8,66.5,47.3,66.5z"/>
	<path class="st2" d="M47.3,57.8c-3.6,0-6.5-2.9-6.5-6.5c0-3.6,2.9-6.5,6.5-6.5c3.6,0,6.5,2.9,6.5,6.5
		C53.8,54.9,50.8,57.8,47.3,57.8z M47.3,47c-2.4,0-4.3,1.9-4.3,4.3c0,2.4,1.9,4.3,4.3,4.3c2.4,0,4.3-1.9,4.3-4.3
		C51.6,48.9,49.6,47,47.3,47z"/>
</g>
</svg>
