<?xml version="1.0" encoding="utf-8"?>
<!-- Generator: Adobe Illustrator 22.1.0, SVG Export Plug-In . SVG Version: 6.00 Build 0)  -->
<svg version="1.1" id="Layer_1" xmlns="http://www.w3.org/2000/svg" xmlns:xlink="http://www.w3.org/1999/xlink" x="0px" y="0px"
	 viewBox="0 0 209.3 198.7" style="enable-background:new 0 0 209.3 198.7;" xml:space="preserve">
<style type="text/css">
	.st0{fill:none;stroke:#5C59ED;stroke-width:9.5102;stroke-linecap:round;stroke-linejoin:round;stroke-miterlimit:10;}
	.st1{fill:#5C59ED;stroke:#5C59ED;stroke-width:5.2694;stroke-miterlimit:10;}
	.st2{fill:#5C59ED;stroke:#5C59ED;stroke-width:3.1701;stroke-miterlimit:10;}
</style>
<path class="st0" d="M151.9,134.6l16,5l-2-30c5.7-8.3,9.1-18.3,9.1-29.1c0-28.5-23.4-51.6-52.2-51.6c-16.8,0-31.8,7.9-41.4,20.1"/>
<circle class="st1" cx="124.3" cy="77.4" r="5.9"/>
<circle class="st2" cx="145.8" cy="77.4" r="5.9"/>
<path class="st0" d="M86.6,67.7c-28.8,0-52.2,21.3-52.2,47.6c0,10,3.4,19.2,9.1,26.8l-2,27.7l30.7-8.8c4.6,1.2,9.5,1.9,14.5,1.9
	c28.8,0,52.2-21.3,52.2-47.6S115.4,67.7,86.6,67.7z"/>
<g>
	<circle class="st2" cx="64.6" cy="116.4" r="5.9"/>
	<circle class="st2" cx="86.2" cy="116.4" r="5.9"/>
	<circle class="st2" cx="107.7" cy="116.4" r="5.9"/>
</g>
</svg>
