<?xml version="1.0" encoding="utf-8"?>
<!-- Generator: Adobe Illustrator 22.1.0, SVG Export Plug-In . SVG Version: 6.00 Build 0)  -->
<svg version="1.1" id="Layer_1" xmlns="http://www.w3.org/2000/svg" xmlns:xlink="http://www.w3.org/1999/xlink" x="0px" y="0px"
	 viewBox="0 0 80 80" style="enable-background:new 0 0 80 80;" xml:space="preserve">
<style type="text/css">
	.st0{opacity:0.3;fill:none;stroke:#5C59ED;stroke-width:3.1605;stroke-linecap:round;stroke-linejoin:round;stroke-miterlimit:10;}
	.st1{fill:none;stroke:#5C59ED;stroke-width:2.8093;stroke-linecap:round;stroke-linejoin:round;stroke-miterlimit:10;}
	.st2{fill:none;stroke:#5C59ED;stroke-width:2.5;stroke-linecap:round;stroke-linejoin:round;stroke-miterlimit:10;}
	.st3{fill:none;stroke:#1F1F3A;stroke-width:2.8093;stroke-linecap:round;stroke-linejoin:round;stroke-miterlimit:10;}
</style>
<path class="st0" d="M17.6,22.1c0.7-4.3,4.5-7.7,9-7.7h33.9c5,0,9.1,4.1,9.1,9.1v27.1c0,4.7-3.6,8.5-8.1,9.1"/>
<path class="st1" d="M52.4,67.3H18.5c-5,0-9.1-4.1-9.1-9.1V31.1c0-5,4.1-9.1,9.1-9.1h33.9c5,0,9.1,4.1,9.1,9.1v27.1
	C61.5,63.2,57.4,67.3,52.4,67.3z"/>
<rect x="17.2" y="29.2" class="st2" width="36.6" height="7"/>
<rect x="17.2" y="41.9" class="st2" width="22.2" height="18.2"/>
<rect x="45.2" y="41.9" class="st2" width="8.9" height="18.2"/>
<polyline class="st3" points="23.6,52 27.8,54.9 32.9,47 "/>
</svg>
