<?xml version="1.0" encoding="utf-8"?>
<!-- Generator: Adobe Illustrator 22.1.0, SVG Export Plug-In . SVG Version: 6.00 Build 0)  -->
<svg version="1.1" id="Layer_1" xmlns="http://www.w3.org/2000/svg" xmlns:xlink="http://www.w3.org/1999/xlink" x="0px" y="0px"
	 viewBox="0 0 104.7 98.7" style="enable-background:new 0 0 104.7 98.7;" xml:space="preserve">
<style type="text/css">
	.st0{fill:url(#SVGID_1_);}
	.st1{fill:none;stroke:#5C59ED;stroke-width:4.8;stroke-linecap:round;stroke-linejoin:round;stroke-miterlimit:10;}
	.st2{fill:#FFFFFF;stroke:#27D7A3;stroke-width:4.8;stroke-linecap:round;stroke-linejoin:round;stroke-miterlimit:10;}
	.st3{fill:none;stroke:#5C59ED;stroke-width:4.5;stroke-linecap:round;stroke-linejoin:round;stroke-miterlimit:10;}
</style>
<linearGradient id="SVGID_1_" gradientUnits="userSpaceOnUse" x1="52.14" y1="10.9167" x2="52.14" y2="84.0033">
	<stop  offset="0" style="stop-color:#FFFFFF;stop-opacity:0"/>
	<stop  offset="1" style="stop-color:#CFD9FD"/>
</linearGradient>
<rect x="12.3" y="17.5" class="st0" width="79.7" height="66.2"/>
<g>
	<line class="st1" x1="39.4" y1="63.5" x2="26.6" y2="50.7"/>
	<line class="st1" x1="39.4" y1="37.9" x2="26.6" y2="50.7"/>
</g>
<g>
	<line class="st1" x1="65.3" y1="63.5" x2="78.1" y2="50.7"/>
	<line class="st1" x1="65.3" y1="37.9" x2="78.1" y2="50.7"/>
</g>
<line class="st2" x1="46.4" y1="69" x2="58.7" y2="31.7"/>
<g>
	<line class="st3" x1="12.3" y1="27.3" x2="12.3" y2="16.9"/>
	<line class="st3" x1="22.7" y1="16.9" x2="12.3" y2="16.9"/>
</g>
<g>
	<line class="st3" x1="92" y1="27.3" x2="92" y2="16.9"/>
	<line class="st3" x1="81.6" y1="16.9" x2="92" y2="16.9"/>
</g>
<g>
	<line class="st3" x1="12.3" y1="73.3" x2="12.3" y2="83.7"/>
	<line class="st3" x1="22.7" y1="83.7" x2="12.3" y2="83.7"/>
</g>
<g>
	<line class="st3" x1="81.6" y1="83.7" x2="92" y2="83.7"/>
	<line class="st3" x1="92" y1="73.3" x2="92" y2="83.7"/>
</g>
</svg>
